<svg width="129" height="32" viewBox="0 0 129 32" fill="none" xmlns="http://www.w3.org/2000/svg">
<path d="M8 16C3.58172 16 0 12.4183 0 8C0 3.58172 3.58172 0 8 0C12.4183 0 16 3.58172 16 8C16 3.58172 19.5817 0 24 0C28.4183 0 32 3.58172 32 8C32 12.4183 28.4183 16 24 16C28.4183 16 32 19.5817 32 24C32 28.4183 28.4183 32 24 32C19.5817 32 16 28.4183 16 24C16 28.4183 12.4183 32 8 32C3.58172 32 0 28.4183 0 24C0 19.5817 3.58172 16 8 16Z" fill="#A1A16A"/>
<path d="M54.616 12.976H54.52L53.224 15.64L49.792 21.976L46.36 15.64L45.064 12.976H44.968V25H41.968V8.248H45.544L49.84 16.432H49.936L54.184 8.248H57.616V25H54.616V12.976ZM62.4058 10.648C61.7658 10.648 61.3018 10.504 61.0138 10.216C60.7418 9.928 60.6058 9.56 60.6058 9.112V8.632C60.6058 8.184 60.7418 7.816 61.0138 7.528C61.3018 7.24 61.7658 7.096 62.4058 7.096C63.0298 7.096 63.4858 7.24 63.7738 7.528C64.0618 7.816 64.2058 8.184 64.2058 8.632V9.112C64.2058 9.56 64.0618 9.928 63.7738 10.216C63.4858 10.504 63.0298 10.648 62.4058 10.648ZM60.8698 12.472H63.9418V25H60.8698V12.472ZM67.0026 25V12.472H70.0746V14.56H70.1946C70.4506 13.888 70.8506 13.328 71.3946 12.88C71.9546 12.416 72.7226 12.184 73.6986 12.184C74.9946 12.184 75.9866 12.608 76.6746 13.456C77.3626 14.304 77.7066 15.512 77.7066 17.08V25H74.6346V17.392C74.6346 16.496 74.4746 15.824 74.1546 15.376C73.8346 14.928 73.3066 14.704 72.5706 14.704C72.2506 14.704 71.9386 14.752 71.6346 14.848C71.3466 14.928 71.0826 15.056 70.8426 15.232C70.6186 15.392 70.4346 15.6 70.2906 15.856C70.1466 16.096 70.0746 16.384 70.0746 16.72V25H67.0026ZM88.3879 22.912H88.2679C88.0439 23.632 87.6199 24.208 86.9959 24.64C86.3719 25.072 85.6439 25.288 84.8119 25.288C83.2279 25.288 82.0119 24.72 81.1639 23.584C80.3319 22.448 79.9159 20.824 79.9159 18.712C79.9159 16.616 80.3319 15.008 81.1639 13.888C82.0119 12.752 83.2279 12.184 84.8119 12.184C85.6439 12.184 86.3719 12.4 86.9959 12.832C87.6199 13.248 88.0439 13.816 88.2679 14.536H88.3879V7.24H91.4599V25H88.3879V22.912ZM85.7959 22.744C86.5319 22.744 87.1479 22.568 87.6439 22.216C88.1399 21.864 88.3879 21.36 88.3879 20.704V16.72C88.3879 16.112 88.1399 15.624 87.6439 15.256C87.1479 14.888 86.5319 14.704 85.7959 14.704C84.9959 14.704 84.3479 14.976 83.8519 15.52C83.3719 16.048 83.1319 16.76 83.1319 17.656V19.816C83.1319 20.712 83.3719 21.424 83.8519 21.952C84.3479 22.48 84.9959 22.744 85.7959 22.744ZM99.4706 25.288C98.5746 25.288 97.7666 25.136 97.0466 24.832C96.3426 24.528 95.7346 24.088 95.2226 23.512C94.7266 22.936 94.3426 22.248 94.0706 21.448C93.7986 20.632 93.6626 19.72 93.6626 18.712C93.6626 17.704 93.7986 16.8 94.0706 16C94.3426 15.2 94.7266 14.52 95.2226 13.96C95.7346 13.384 96.3426 12.944 97.0466 12.64C97.7666 12.336 98.5746 12.184 99.4706 12.184C100.367 12.184 101.175 12.336 101.895 12.64C102.615 12.944 103.223 13.384 103.719 13.96C104.231 14.52 104.623 15.2 104.895 16C105.167 16.8 105.303 17.704 105.303 18.712C105.303 19.72 105.167 20.632 104.895 21.448C104.623 22.248 104.231 22.936 103.719 23.512C103.223 24.088 102.615 24.528 101.895 24.832C101.175 25.136 100.367 25.288 99.4706 25.288ZM99.4706 22.816C100.287 22.816 100.927 22.568 101.391 22.072C101.855 21.576 102.087 20.848 102.087 19.888V17.56C102.087 16.616 101.855 15.896 101.391 15.4C100.927 14.904 100.287 14.656 99.4706 14.656C98.6706 14.656 98.0386 14.904 97.5746 15.4C97.1106 15.896 96.8786 16.616 96.8786 17.56V19.888C96.8786 20.848 97.1106 21.576 97.5746 22.072C98.0386 22.568 98.6706 22.816 99.4706 22.816ZM112.494 25.288C111.598 25.288 110.79 25.136 110.07 24.832C109.366 24.528 108.758 24.088 108.246 23.512C107.75 22.936 107.366 22.248 107.094 21.448C106.822 20.632 106.686 19.72 106.686 18.712C106.686 17.704 106.822 16.8 107.094 16C107.366 15.2 107.75 14.52 108.246 13.96C108.758 13.384 109.366 12.944 110.07 12.64C110.79 12.336 111.598 12.184 112.494 12.184C113.39 12.184 114.198 12.336 114.918 12.64C115.638 12.944 116.246 13.384 116.742 13.96C117.254 14.52 117.646 15.2 117.918 16C118.19 16.8 118.326 17.704 118.326 18.712C118.326 19.72 118.19 20.632 117.918 21.448C117.646 22.248 117.254 22.936 116.742 23.512C116.246 24.088 115.638 24.528 114.918 24.832C114.198 25.136 113.39 25.288 112.494 25.288ZM112.494 22.816C113.31 22.816 113.95 22.568 114.414 22.072C114.878 21.576 115.11 20.848 115.11 19.888V17.56C115.11 16.616 114.878 15.896 114.414 15.4C113.95 14.904 113.31 14.656 112.494 14.656C111.694 14.656 111.062 14.904 110.598 15.4C110.134 15.896 109.902 16.616 109.902 17.56V19.888C109.902 20.848 110.134 21.576 110.598 22.072C111.062 22.568 111.694 22.816 112.494 22.816ZM120.549 25V12.472H123.621V15.064H123.741C123.821 14.728 123.941 14.408 124.101 14.104C124.277 13.784 124.501 13.504 124.773 13.264C125.045 13.024 125.365 12.832 125.733 12.688C126.117 12.544 126.557 12.472 127.053 12.472H127.725V15.376H126.765C125.725 15.376 124.941 15.528 124.413 15.832C123.885 16.136 123.621 16.632 123.621 17.32V25H120.549Z" fill="#292524"/>
</svg>
